<svg width="292" height="92" viewBox="0 0 292 92" fill="none" xmlns="http://www.w3.org/2000/svg">
<g id="Frame 2">
<path id="J" d="M70.656 28.248V56.912C70.656 59.9456 70.0122 62.2685 68.8208 63.9706C67.7365 65.5196 65.7689 66.424 62.584 66.424C59.4136 66.424 57.2417 65.5243 55.8579 63.8964C54.4159 62.1999 53.648 59.9056 53.648 56.912V53.024V52.024H52.648H46.6H45.6V53.024V56.912C45.6 62.3236 47.0687 66.623 50.147 69.6491L50.1531 69.6551L50.1593 69.661C53.2679 72.6142 57.4495 74.04 62.584 74.04C67.7114 74.04 71.759 72.6166 74.5479 69.6174C77.368 66.5884 78.704 62.3009 78.704 56.912V27.248V21.632V20.632H77.704H50.848H49.4774L49.8957 21.9372L51.6957 27.5532L51.9184 28.248H52.648H70.656Z" stroke="#2B50AA" stroke-width="2"/>
<path id="o" d="M108.741 68.3362L108.747 68.331L108.752 68.3256C110.486 66.6429 111.854 64.611 112.862 62.2441C113.933 59.7939 114.456 57.0151 114.456 53.928V53.064C114.456 50.026 113.934 47.2947 112.862 44.8917C111.854 42.4761 110.46 40.4178 108.675 38.7335C106.945 37.0551 104.933 35.7833 102.649 34.9205C100.374 34.0611 97.9984 33.632 95.528 33.632C93.0576 33.632 90.6817 34.0611 88.4066 34.9205C86.1231 35.7832 84.0901 37.0539 82.314 38.7284L82.3087 38.7334L82.3035 38.7384C80.5691 40.4219 79.1783 42.477 78.1238 44.8872L78.1238 44.8872L78.1199 44.8965C77.098 47.2979 76.6 50.0271 76.6 53.064V53.928C76.6 57.0112 77.0974 59.7857 78.1169 62.2326L78.1218 62.2444L78.127 62.256C79.1823 64.6179 80.5727 66.6457 82.3035 68.3256L82.309 68.331L82.3146 68.3362C84.0455 69.9653 86.0552 71.2104 88.3346 72.0715C90.612 72.9318 93.0121 73.36 95.528 73.36C97.9971 73.36 100.372 72.9314 102.646 72.0729C104.972 71.2128 107.008 69.9681 108.741 68.3362ZM105.826 48.1652L105.826 48.1652L105.83 48.1745C106.402 49.6279 106.696 51.2535 106.696 53.064V53.928C106.696 55.8385 106.401 57.5375 105.828 59.0382C105.248 60.5074 104.453 61.7613 103.446 62.8121C102.44 63.8621 101.261 64.6712 99.9009 65.2426C98.5938 65.7643 97.1401 66.032 95.528 66.032C93.9205 66.032 92.442 65.7657 91.0835 65.2426C89.7751 64.6728 88.6189 63.8649 87.61 62.8121C86.6029 61.7613 85.8077 60.5074 85.2283 59.0382C84.6552 57.5375 84.36 55.8385 84.36 53.928V53.064C84.36 51.2535 84.6539 49.6279 85.2264 48.1745L85.2265 48.1746L85.2301 48.1652C85.811 46.6459 86.6067 45.3708 87.61 44.3239C88.6181 43.272 89.7996 42.4618 91.1627 41.8902L91.1752 41.885L91.1876 41.8794C92.5424 41.2675 93.9857 40.96 95.528 40.96C97.0703 40.96 98.5136 41.2675 99.8684 41.8794L99.8808 41.885L99.8933 41.8902C101.256 42.4618 102.438 43.272 103.446 44.3239C104.449 45.3708 105.245 46.6459 105.826 48.1652Z" stroke="#2B50AA" stroke-width="2"/>
<path id="r" d="M111.464 34.64H110.464V35.64V40.824V41.824H111.464H117.808V65.168H110.6H109.6V66.168V71.352V72.352H110.6H133.496H134.496V71.352V66.168V65.168H133.496H125.424V51.048C125.424 49.585 125.584 48.2272 125.898 46.9706C126.207 45.7339 126.687 44.6758 127.326 43.7813C127.959 42.895 128.731 42.2075 129.647 41.7064C130.581 41.2208 131.71 40.96 133.064 40.96C135.13 40.96 136.825 41.6182 138.211 42.9209L138.217 42.9265L138.223 42.932C139.508 44.0996 140.272 46.1371 140.272 49.32V50.477L141.417 50.3095L147.321 49.4455L148.204 49.3162L148.175 48.4241C148.027 43.7657 146.808 40.0647 144.377 37.4756C141.957 34.8978 138.777 33.632 134.936 33.632C132.627 33.632 130.535 34.146 128.689 35.1984C127.384 35.909 126.297 36.8987 125.424 38.1459V35.64V34.64H124.424H111.464Z" stroke="#2B50AA" stroke-width="2"/>
<path id="n" d="M219.216 73.352H220.216V72.352V53.776C220.216 50.0521 221.133 47.2058 222.863 45.1292C224.619 43.0317 227.011 41.96 230.16 41.96C232.802 41.96 234.794 42.8069 236.256 44.4359C237.707 46.0526 238.52 48.5771 238.52 52.192V72.352V73.352H239.52H245.136H246.136V72.352V51.04C246.136 45.7645 244.88 41.6302 242.188 38.83C239.521 36.0082 235.954 34.632 231.6 34.632C228.719 34.632 226.202 35.2521 224.094 36.5433C222.547 37.4905 221.257 38.777 220.216 40.3805V36.64V35.64H219.216H213.6H212.6V36.64V72.352V73.352H213.6H219.216Z" stroke="#2B50AA" stroke-width="2"/>
<path id="a" d="M185.377 72.135L185.386 72.1388L185.396 72.1425C187.536 72.9576 189.841 73.36 192.304 73.36C194.738 73.36 197.043 72.7368 199.204 71.5028C200.972 70.5146 202.421 69.1142 203.557 67.3285C203.803 68.5187 204.342 69.5715 205.189 70.4585L205.197 70.4669L205.205 70.4751C206.467 71.737 208.074 72.352 209.944 72.352H213.76H214.76V71.352V66.168V65.168H213.76H211.96C211.495 65.168 211.321 65.0437 211.245 64.9591C211.151 64.8544 211.016 64.5984 211.016 64.008V35.64V34.64H210.016H204.4H203.4V35.64V39.0885C202.294 37.5124 200.916 36.2784 199.261 35.4089C197.134 34.2187 194.759 33.632 192.16 33.632C189.78 33.632 187.516 34.063 185.377 34.9291C183.23 35.7981 181.338 37.0774 179.706 38.7599L179.706 38.7602C178.112 40.405 176.868 42.4206 175.962 44.7864C175.046 47.1779 174.6 49.895 174.6 52.92V54.072C174.6 57.1429 175.046 59.8844 175.962 62.2777C176.867 64.6414 178.109 66.676 179.695 68.3647L179.706 68.3761L179.717 68.3871C181.348 70.018 183.237 71.2687 185.377 72.135ZM197.09 65.1785L197.09 65.1784L197.079 65.1835C195.828 65.7442 194.433 66.032 192.88 66.032C189.721 66.032 187.21 64.999 185.258 62.9643C183.366 60.8958 182.36 57.9753 182.36 54.072V52.92C182.36 51.1006 182.633 49.4661 183.164 48.0058L183.164 48.0058L183.167 47.9968C183.705 46.4717 184.434 45.2254 185.338 44.2348C186.304 43.1812 187.417 42.3752 188.681 41.8085C189.932 41.2478 191.327 40.96 192.88 40.96C194.37 40.96 195.732 41.2657 196.981 41.8686L197 41.8775L197.018 41.8856C198.326 42.4522 199.428 43.253 200.335 44.2905L200.343 44.2992L200.351 44.3077C201.307 45.3503 202.057 46.6221 202.593 48.1408L202.593 48.1409L202.596 48.1498C203.127 49.6101 203.4 51.2446 203.4 53.064V53.928C203.4 55.7962 203.127 57.4805 202.595 58.9909C202.057 60.4684 201.325 61.7247 200.407 62.7735C199.5 63.8111 198.398 64.6119 197.09 65.1785Z" stroke="#2B50AA" stroke-width="2"/>
<path id="d" d="M144.861 68.9951L144.866 69.0006L144.872 69.0059C146.551 70.6341 148.487 71.8819 150.672 72.746C152.863 73.6119 155.22 74.04 157.736 74.04C158.877 74.04 160.056 73.8852 161.271 73.5829C162.5 73.3251 163.659 72.9134 164.744 72.3463C165.88 71.7769 166.915 71.0528 167.845 70.1763C168.369 69.7065 168.842 69.1934 169.264 68.6377V72.032V73.032H170.264H175.88H176.88V72.032V21.632V20.632H175.88H170.264H169.264V21.632V39.7876C168.12 38.1889 166.658 36.9458 164.883 36.0756C162.628 34.8989 160.192 34.312 157.592 34.312C155.167 34.312 152.858 34.742 150.672 35.6061C148.48 36.473 146.562 37.7505 144.927 39.4343C143.286 41.0779 141.994 43.1155 141.04 45.5246C140.072 47.9186 139.6 50.6161 139.6 53.6V54.752C139.6 57.7777 140.046 60.5158 140.96 62.9511L140.964 62.963L140.969 62.9748C141.925 65.3403 143.219 67.3535 144.861 68.9951ZM166.014 63.4201L166.006 63.4281L165.999 63.4363C165.038 64.4843 163.906 65.2901 162.594 65.8585C161.289 66.4243 159.865 66.712 158.312 66.712C156.702 66.712 155.25 66.445 153.945 65.9248C152.632 65.3539 151.474 64.5681 150.466 63.5643C149.51 62.5166 148.739 61.2652 148.159 59.7979C147.633 58.3454 147.36 56.6683 147.36 54.752V53.6C147.36 51.7857 147.631 50.1554 148.159 48.6982C148.74 47.2272 149.514 45.9732 150.474 44.924C151.484 43.8717 152.642 43.0645 153.952 42.4959C155.311 41.9269 156.761 41.64 158.312 41.64C159.802 41.64 161.193 41.9457 162.497 42.5542L162.515 42.5626L162.533 42.5702C163.892 43.1402 165.044 43.9458 165.999 44.9877L166.006 44.9959L166.014 45.0039C167.017 46.0508 167.813 47.3259 168.394 48.8452L168.394 48.8452L168.398 48.8545C168.97 50.3079 169.264 51.9335 169.264 53.744V54.608C169.264 56.4673 168.97 58.1429 168.396 59.6461C167.816 61.1154 167.021 62.3693 166.014 63.4201Z" stroke="#2B50AA" stroke-width="2"/>
<path id="{" d="M15.616 14.616C15.616 12.984 16.12 11.64 17.128 10.584C18.184 9.528 19.528 9 21.16 9H28.144V14.184H23.176C21.88 14.184 21.232 14.904 21.232 16.344V39.384C21.232 41.016 20.704 42.36 19.648 43.416C18.64 44.472 17.296 45 15.616 45H14.752V45.864H15.616C17.296 45.864 18.64 46.392 19.648 47.448C20.704 48.504 21.232 49.848 21.232 51.48V74.52C21.232 75.96 21.88 76.68 23.176 76.68H28.144V81.864H21.16C19.528 81.864 18.184 81.336 17.128 80.28C16.12 79.224 15.616 77.88 15.616 76.248V51.408C15.616 50.016 14.968 49.32 13.672 49.32H10V41.544H13.672C14.968 41.544 15.616 40.848 15.616 39.456V14.616Z" fill="#2B50AA"/>
<path id="}" d="M276.128 40.088C276.128 41.48 276.776 42.176 278.072 42.176H281.744V49.952H278.072C276.776 49.952 276.128 50.648 276.128 52.04V76.88C276.128 78.512 275.6 79.856 274.544 80.912C273.536 81.968 272.216 82.496 270.584 82.496H263.6V77.312H268.568C269.864 77.312 270.512 76.592 270.512 75.152V52.112C270.512 50.48 271.016 49.136 272.024 48.08C273.08 47.024 274.448 46.496 276.128 46.496H276.992V45.632H276.128C274.448 45.632 273.08 45.104 272.024 44.048C271.016 42.992 270.512 41.648 270.512 40.016V16.976C270.512 15.536 269.864 14.816 268.568 14.816H263.6V9.63202H270.584C272.216 9.63202 273.536 10.16 274.544 11.216C275.6 12.272 276.128 13.616 276.128 15.248V40.088Z" fill="#2B50AA"/>
</g>
</svg>
