<svg width="600" height="300" viewBox="0 0 600 300" fill="none" xmlns="http://www.w3.org/2000/svg">
<path d="M579.612 280.986L441.445 280.361L81.5588 41.6061L86.692 19.6523L579.612 280.986Z" fill="#FFF4C5"/>
<rect x="0.05" y="280.91" width="599.9" height="19.0402" rx="9.5201" fill="#404040" stroke="white" stroke-width="0.1"/>
<path d="M148.289 68.5464C148.289 63.0236 152.766 58.5464 158.289 58.5464H430.304C435.827 58.5464 440.304 63.0235 440.304 68.5464V251.074H148.289V68.5464Z" fill="#2C394B"/>
<path d="M124 251C256.865 251 331.831 251 465 251V260C465 271.046 456.046 280 445 280H144C132.954 280 124 271.046 124 260V251Z" fill="#B1B1B1"/>
<path d="M124 253C256.89 253 331.871 253 465.065 253V261.147C465.065 272.193 456.11 281.147 445.065 281.147H144C132.954 281.147 124 272.193 124 261.147V253Z" fill="#082032"/>
<path d="M263.498 247.697H325.095V247.697C325.095 255.159 319.046 261.208 311.584 261.208H277.009C269.547 261.208 263.498 255.159 263.498 247.697V247.697Z" fill="#2C394B"/>
<rect x="163.118" y="75.4346" width="263.498" height="156.499" fill="#565266"/>
<rect x="163.118" y="75.4346" width="263.498" height="11.2589" fill="#797F9E"/>
<ellipse cx="175.095" cy="81.6267" rx="2.85171" ry="2.81474" fill="#E84D4D"/>
<ellipse cx="183.08" cy="81.6267" rx="2.85171" ry="2.81474" fill="#F2DD77"/>
<ellipse cx="191.065" cy="81.6267" rx="2.85171" ry="2.81474" fill="#4EB785"/>
<path d="M179.651 99.5747V98.6867H178.187V98.2427L179.807 95.8367H180.311V98.1407H180.803V98.6927H180.311V99.5747H179.651ZM178.871 98.1527H179.669V96.9047L178.871 98.1527ZM182.459 99.6467C182.199 99.6467 181.963 99.5967 181.751 99.4967C181.543 99.3967 181.383 99.2487 181.271 99.0527L181.745 98.6627L181.793 98.6267L181.823 98.6687C181.823 98.7007 181.829 98.7307 181.841 98.7587C181.853 98.7867 181.879 98.8267 181.919 98.8787C182.059 99.0227 182.237 99.0947 182.453 99.0947C182.633 99.0947 182.781 99.0287 182.897 98.8967C183.013 98.7607 183.071 98.5907 183.071 98.3867C183.071 98.1667 183.015 97.9887 182.903 97.8527C182.791 97.7127 182.635 97.6427 182.435 97.6427C182.183 97.6427 181.981 97.7407 181.829 97.9367L181.415 97.8287L181.553 95.8367H183.551V96.3827H182.117L182.063 97.2287C182.135 97.1887 182.219 97.1567 182.315 97.1327C182.415 97.1087 182.507 97.0967 182.591 97.0967C182.923 97.0967 183.193 97.2047 183.401 97.4207C183.609 97.6327 183.713 97.9387 183.713 98.3387C183.713 98.6107 183.659 98.8447 183.551 99.0407C183.443 99.2327 183.293 99.3827 183.101 99.4907C182.913 99.5947 182.699 99.6467 182.459 99.6467Z" fill="#8C91A9"/>
<path d="M179.651 108.582V107.694H178.187V107.25L179.807 104.844H180.311V107.148H180.803V107.7H180.311V108.582H179.651ZM178.871 107.16H179.669V105.912L178.871 107.16ZM182.507 108.648C182.239 108.648 182.011 108.574 181.823 108.426C181.639 108.278 181.497 108.072 181.397 107.808C181.301 107.54 181.253 107.226 181.253 106.866C181.253 106.426 181.313 106.052 181.433 105.744C181.553 105.432 181.719 105.194 181.931 105.03C182.143 104.866 182.385 104.784 182.657 104.784C182.821 104.784 182.987 104.814 183.155 104.874C183.323 104.93 183.473 105.022 183.605 105.15L183.233 105.564L183.197 105.612L183.149 105.576C183.149 105.54 183.137 105.512 183.113 105.492C183.093 105.472 183.057 105.444 183.005 105.408C182.917 105.368 182.821 105.348 182.717 105.348C182.641 105.348 182.559 105.362 182.471 105.39C182.387 105.414 182.305 105.466 182.225 105.546C182.145 105.622 182.077 105.734 182.021 105.882C181.965 106.026 181.931 106.216 181.919 106.452C181.999 106.348 182.101 106.268 182.225 106.212C182.353 106.152 182.481 106.122 182.609 106.122C182.809 106.122 182.989 106.168 183.149 106.26C183.309 106.352 183.435 106.488 183.527 106.668C183.623 106.848 183.671 107.074 183.671 107.346C183.671 107.594 183.621 107.816 183.521 108.012C183.421 108.208 183.283 108.364 183.107 108.48C182.931 108.592 182.731 108.648 182.507 108.648ZM182.519 108.102C182.671 108.102 182.795 108.034 182.891 107.898C182.991 107.758 183.041 107.574 183.041 107.346C183.041 107.11 182.985 106.936 182.873 106.824C182.765 106.712 182.645 106.656 182.513 106.656C182.389 106.656 182.279 106.694 182.183 106.77C182.091 106.846 182.009 106.944 181.937 107.064C181.921 107.368 181.967 107.618 182.075 107.814C182.183 108.01 182.331 108.106 182.519 108.102Z" fill="#8C91A9"/>
<path d="M179.651 117.589V116.701H178.187V116.257L179.807 113.851H180.311V116.155H180.803V116.707H180.311V117.589H179.651ZM178.871 116.167H179.669V114.919L178.871 116.167ZM181.691 117.589C181.867 117.041 182.049 116.509 182.237 115.993C182.429 115.477 182.631 114.957 182.843 114.433H181.337V113.851H183.605V114.223C183.377 114.771 183.161 115.321 182.957 115.873C182.753 116.425 182.565 116.997 182.393 117.589H181.691Z" fill="#8C91A9"/>
<path d="M179.651 126.596V125.708H178.187V125.264L179.807 122.858H180.311V125.162H180.803V125.714H180.311V126.596H179.651ZM178.871 125.174H179.669V123.926L178.871 125.174ZM182.447 126.662C182.195 126.662 181.975 126.618 181.787 126.53C181.603 126.438 181.459 126.316 181.355 126.164C181.255 126.008 181.205 125.832 181.205 125.636C181.205 125.396 181.269 125.192 181.397 125.024C181.529 124.852 181.699 124.712 181.907 124.604C181.751 124.508 181.625 124.386 181.529 124.238C181.433 124.086 181.385 123.926 181.385 123.758C181.385 123.578 181.429 123.416 181.517 123.272C181.605 123.124 181.731 123.008 181.895 122.924C182.059 122.84 182.255 122.798 182.483 122.798C182.831 122.798 183.099 122.888 183.287 123.068C183.475 123.248 183.569 123.466 183.569 123.722C183.569 123.922 183.523 124.098 183.431 124.25C183.339 124.402 183.215 124.526 183.059 124.622C183.259 124.726 183.415 124.866 183.527 125.042C183.639 125.214 183.695 125.406 183.695 125.618C183.695 125.818 183.643 125.998 183.539 126.158C183.435 126.314 183.289 126.438 183.101 126.53C182.913 126.618 182.695 126.662 182.447 126.662ZM182.573 124.418C182.689 124.334 182.777 124.236 182.837 124.124C182.897 124.008 182.927 123.89 182.927 123.77C182.927 123.654 182.885 123.556 182.801 123.476C182.721 123.392 182.609 123.35 182.465 123.35C182.321 123.35 182.211 123.39 182.135 123.47C182.059 123.55 182.021 123.646 182.021 123.758C182.021 123.906 182.073 124.032 182.177 124.136C182.285 124.24 182.417 124.334 182.573 124.418ZM182.459 126.104C182.647 126.104 182.789 126.054 182.885 125.954C182.981 125.854 183.029 125.728 183.029 125.576C183.029 125.416 182.965 125.274 182.837 125.15C182.713 125.026 182.547 124.93 182.339 124.862C182.199 124.938 182.087 125.034 182.003 125.15C181.919 125.266 181.877 125.402 181.877 125.558C181.877 125.714 181.929 125.844 182.033 125.948C182.137 126.052 182.279 126.104 182.459 126.104Z" fill="#8C91A9"/>
<path d="M179.651 135.604V134.716H178.187V134.272L179.807 131.866H180.311V134.17H180.803V134.722H180.311V135.604H179.651ZM178.871 134.182H179.669V132.934L178.871 134.182ZM182.291 135.67C182.103 135.67 181.921 135.646 181.745 135.598C181.569 135.546 181.409 135.458 181.265 135.334L181.613 134.836L181.643 134.788L181.691 134.818C181.699 134.85 181.711 134.88 181.727 134.908C181.743 134.932 181.777 134.966 181.829 135.01C181.957 135.082 182.103 135.118 182.267 135.118C182.463 135.118 182.623 135.026 182.747 134.842C182.871 134.654 182.953 134.406 182.993 134.098C182.813 134.214 182.605 134.272 182.369 134.272C182.153 134.272 181.959 134.224 181.787 134.128C181.615 134.032 181.477 133.894 181.373 133.714C181.273 133.534 181.223 133.324 181.223 133.084C181.223 132.844 181.277 132.628 181.385 132.436C181.497 132.244 181.645 132.092 181.829 131.98C182.013 131.868 182.219 131.812 182.447 131.812C182.839 131.812 183.135 131.962 183.335 132.262C183.539 132.558 183.641 132.986 183.641 133.546C183.641 134.238 183.523 134.764 183.287 135.124C183.055 135.484 182.723 135.666 182.291 135.67ZM181.859 133.102C181.859 133.31 181.913 133.468 182.021 133.576C182.133 133.684 182.267 133.738 182.423 133.738C182.543 133.738 182.651 133.722 182.747 133.69C182.847 133.654 182.935 133.592 183.011 133.504C183.003 133.084 182.949 132.788 182.849 132.616C182.753 132.44 182.611 132.352 182.423 132.352C182.255 132.352 182.119 132.42 182.015 132.556C181.911 132.688 181.859 132.87 181.859 133.102Z" fill="#8C91A9"/>
<path d="M179.459 144.682C179.199 144.682 178.963 144.632 178.751 144.532C178.543 144.432 178.383 144.284 178.271 144.088L178.745 143.698L178.793 143.662L178.823 143.704C178.823 143.736 178.829 143.766 178.841 143.794C178.853 143.822 178.879 143.862 178.919 143.914C179.059 144.058 179.237 144.13 179.453 144.13C179.633 144.13 179.781 144.064 179.897 143.932C180.013 143.796 180.071 143.626 180.071 143.422C180.071 143.202 180.015 143.024 179.903 142.888C179.791 142.748 179.635 142.678 179.435 142.678C179.183 142.678 178.981 142.776 178.829 142.972L178.415 142.864L178.553 140.872H180.551V141.418H179.117L179.063 142.264C179.135 142.224 179.219 142.192 179.315 142.168C179.415 142.144 179.507 142.132 179.591 142.132C179.923 142.132 180.193 142.24 180.401 142.456C180.609 142.668 180.713 142.974 180.713 143.374C180.713 143.646 180.659 143.88 180.551 144.076C180.443 144.268 180.293 144.418 180.101 144.526C179.913 144.63 179.699 144.682 179.459 144.682ZM182.447 144.682C182.055 144.682 181.743 144.516 181.511 144.184C181.283 143.852 181.169 143.378 181.169 142.762C181.169 142.154 181.283 141.678 181.511 141.334C181.743 140.99 182.055 140.818 182.447 140.818C182.839 140.818 183.149 140.99 183.377 141.334C183.609 141.678 183.725 142.154 183.725 142.762C183.725 143.378 183.609 143.852 183.377 144.184C183.149 144.516 182.839 144.682 182.447 144.682ZM181.799 142.762C181.799 142.926 181.807 143.078 181.823 143.218L182.975 141.85C182.867 141.526 182.691 141.364 182.447 141.364C182.231 141.364 182.069 141.488 181.961 141.736C181.853 141.98 181.799 142.322 181.799 142.762ZM182.447 144.16C182.663 144.16 182.825 144.04 182.933 143.8C183.041 143.556 183.095 143.21 183.095 142.762C183.095 142.606 183.087 142.46 183.071 142.324L181.919 143.686C182.027 144.002 182.203 144.16 182.447 144.16Z" fill="#8C91A9"/>
<path d="M179.459 153.69C179.199 153.69 178.963 153.64 178.751 153.54C178.543 153.44 178.383 153.292 178.271 153.096L178.745 152.706L178.793 152.67L178.823 152.712C178.823 152.744 178.829 152.774 178.841 152.802C178.853 152.83 178.879 152.87 178.919 152.922C179.059 153.066 179.237 153.138 179.453 153.138C179.633 153.138 179.781 153.072 179.897 152.94C180.013 152.804 180.071 152.634 180.071 152.43C180.071 152.21 180.015 152.032 179.903 151.896C179.791 151.756 179.635 151.686 179.435 151.686C179.183 151.686 178.981 151.784 178.829 151.98L178.415 151.872L178.553 149.88H180.551V150.426H179.117L179.063 151.272C179.135 151.232 179.219 151.2 179.315 151.176C179.415 151.152 179.507 151.14 179.591 151.14C179.923 151.14 180.193 151.248 180.401 151.464C180.609 151.676 180.713 151.982 180.713 152.382C180.713 152.654 180.659 152.888 180.551 153.084C180.443 153.276 180.293 153.426 180.101 153.534C179.913 153.638 179.699 153.69 179.459 153.69ZM182.195 153.618V150.618L181.517 150.858L181.373 150.408L182.369 149.88H182.873V153.618H182.195Z" fill="#8C91A9"/>
<path d="M179.459 162.697C179.199 162.697 178.963 162.647 178.751 162.547C178.543 162.447 178.383 162.299 178.271 162.103L178.745 161.713L178.793 161.677L178.823 161.719C178.823 161.751 178.829 161.781 178.841 161.809C178.853 161.837 178.879 161.877 178.919 161.929C179.059 162.073 179.237 162.145 179.453 162.145C179.633 162.145 179.781 162.079 179.897 161.947C180.013 161.811 180.071 161.641 180.071 161.437C180.071 161.217 180.015 161.039 179.903 160.903C179.791 160.763 179.635 160.693 179.435 160.693C179.183 160.693 178.981 160.791 178.829 160.987L178.415 160.879L178.553 158.887H180.551V159.433H179.117L179.063 160.279C179.135 160.239 179.219 160.207 179.315 160.183C179.415 160.159 179.507 160.147 179.591 160.147C179.923 160.147 180.193 160.255 180.401 160.471C180.609 160.683 180.713 160.989 180.713 161.389C180.713 161.661 180.659 161.895 180.551 162.091C180.443 162.283 180.293 162.433 180.101 162.541C179.913 162.645 179.699 162.697 179.459 162.697ZM181.289 162.121C181.577 161.841 181.827 161.599 182.039 161.395C182.251 161.187 182.427 161.003 182.567 160.843C182.707 160.679 182.811 160.525 182.879 160.381C182.947 160.233 182.981 160.077 182.981 159.913C182.981 159.569 182.805 159.397 182.453 159.397C182.325 159.397 182.209 159.419 182.105 159.463C182.001 159.507 181.907 159.579 181.823 159.679C181.787 159.735 181.763 159.777 181.751 159.805C181.743 159.833 181.741 159.863 181.745 159.895L181.709 159.937L181.667 159.907L181.199 159.547C181.335 159.319 181.513 159.143 181.733 159.019C181.957 158.895 182.199 158.833 182.459 158.833C182.675 158.833 182.871 158.879 183.047 158.971C183.223 159.059 183.363 159.183 183.467 159.343C183.571 159.503 183.623 159.693 183.623 159.913C183.623 160.169 183.563 160.407 183.443 160.627C183.323 160.843 183.153 161.065 182.933 161.293C182.717 161.521 182.465 161.781 182.177 162.073H183.359C183.423 162.073 183.469 162.069 183.497 162.061C183.529 162.053 183.557 162.037 183.581 162.013H183.635V162.625H181.289V162.121Z" fill="#8C91A9"/>
<path d="M179.459 171.704C179.199 171.704 178.963 171.654 178.751 171.554C178.543 171.454 178.383 171.306 178.271 171.11L178.745 170.72L178.793 170.684L178.823 170.726C178.823 170.758 178.829 170.788 178.841 170.816C178.853 170.844 178.879 170.884 178.919 170.936C179.059 171.08 179.237 171.152 179.453 171.152C179.633 171.152 179.781 171.086 179.897 170.954C180.013 170.818 180.071 170.648 180.071 170.444C180.071 170.224 180.015 170.046 179.903 169.91C179.791 169.77 179.635 169.7 179.435 169.7C179.183 169.7 178.981 169.798 178.829 169.994L178.415 169.886L178.553 167.894H180.551V168.44H179.117L179.063 169.286C179.135 169.246 179.219 169.214 179.315 169.19C179.415 169.166 179.507 169.154 179.591 169.154C179.923 169.154 180.193 169.262 180.401 169.478C180.609 169.69 180.713 169.996 180.713 170.396C180.713 170.668 180.659 170.902 180.551 171.098C180.443 171.29 180.293 171.44 180.101 171.548C179.913 171.652 179.699 171.704 179.459 171.704ZM182.357 171.704C182.137 171.704 181.923 171.668 181.715 171.596C181.507 171.52 181.339 171.406 181.211 171.254L181.553 170.756L181.589 170.708L181.637 170.738C181.645 170.77 181.653 170.802 181.661 170.834C181.673 170.866 181.703 170.906 181.751 170.954C181.823 171.018 181.907 171.07 182.003 171.11C182.099 171.146 182.207 171.164 182.327 171.164C182.519 171.164 182.665 171.11 182.765 171.002C182.869 170.89 182.921 170.746 182.921 170.57C182.921 170.322 182.837 170.15 182.669 170.054C182.505 169.958 182.261 169.928 181.937 169.964V169.436C182.173 169.44 182.355 169.418 182.483 169.37C182.615 169.318 182.707 169.248 182.759 169.16C182.811 169.072 182.837 168.978 182.837 168.878C182.837 168.73 182.791 168.614 182.699 168.53C182.611 168.442 182.491 168.398 182.339 168.398C182.219 168.398 182.101 168.422 181.985 168.47C181.873 168.514 181.773 168.586 181.685 168.686L181.295 168.29C181.435 168.126 181.601 168.01 181.793 167.942C181.985 167.874 182.175 167.84 182.363 167.84C182.583 167.84 182.777 167.882 182.945 167.966C183.117 168.05 183.251 168.164 183.347 168.308C183.443 168.452 183.491 168.618 183.491 168.806C183.491 169.014 183.431 169.192 183.311 169.34C183.195 169.484 183.061 169.586 182.909 169.646C183.025 169.686 183.135 169.746 183.239 169.826C183.347 169.906 183.433 170.01 183.497 170.138C183.565 170.266 183.599 170.418 183.599 170.594C183.599 170.802 183.549 170.99 183.449 171.158C183.349 171.322 183.205 171.454 183.017 171.554C182.833 171.654 182.613 171.704 182.357 171.704Z" fill="#8C91A9"/>
<path d="M179.459 180.711C179.199 180.711 178.963 180.661 178.751 180.561C178.543 180.461 178.383 180.313 178.271 180.117L178.745 179.727L178.793 179.691L178.823 179.733C178.823 179.765 178.829 179.795 178.841 179.823C178.853 179.851 178.879 179.891 178.919 179.943C179.059 180.087 179.237 180.159 179.453 180.159C179.633 180.159 179.781 180.093 179.897 179.961C180.013 179.825 180.071 179.655 180.071 179.451C180.071 179.231 180.015 179.053 179.903 178.917C179.791 178.777 179.635 178.707 179.435 178.707C179.183 178.707 178.981 178.805 178.829 179.001L178.415 178.893L178.553 176.901H180.551V177.447H179.117L179.063 178.293C179.135 178.253 179.219 178.221 179.315 178.197C179.415 178.173 179.507 178.161 179.591 178.161C179.923 178.161 180.193 178.269 180.401 178.485C180.609 178.697 180.713 179.003 180.713 179.403C180.713 179.675 180.659 179.909 180.551 180.105C180.443 180.297 180.293 180.447 180.101 180.555C179.913 180.659 179.699 180.711 179.459 180.711ZM182.651 180.639V179.751H181.187V179.307L182.807 176.901H183.311V179.205H183.803V179.757H183.311V180.639H182.651ZM181.871 179.217H182.669V177.969L181.871 179.217Z" fill="#8C91A9"/>
<path d="M179.459 189.718C179.199 189.718 178.963 189.668 178.751 189.568C178.543 189.468 178.383 189.32 178.271 189.124L178.745 188.734L178.793 188.698L178.823 188.74C178.823 188.772 178.829 188.802 178.841 188.83C178.853 188.858 178.879 188.898 178.919 188.95C179.059 189.094 179.237 189.166 179.453 189.166C179.633 189.166 179.781 189.1 179.897 188.968C180.013 188.832 180.071 188.662 180.071 188.458C180.071 188.238 180.015 188.06 179.903 187.924C179.791 187.784 179.635 187.714 179.435 187.714C179.183 187.714 178.981 187.812 178.829 188.008L178.415 187.9L178.553 185.908H180.551V186.454H179.117L179.063 187.3C179.135 187.26 179.219 187.228 179.315 187.204C179.415 187.18 179.507 187.168 179.591 187.168C179.923 187.168 180.193 187.276 180.401 187.492C180.609 187.704 180.713 188.01 180.713 188.41C180.713 188.682 180.659 188.916 180.551 189.112C180.443 189.304 180.293 189.454 180.101 189.562C179.913 189.666 179.699 189.718 179.459 189.718ZM182.459 189.718C182.199 189.718 181.963 189.668 181.751 189.568C181.543 189.468 181.383 189.32 181.271 189.124L181.745 188.734L181.793 188.698L181.823 188.74C181.823 188.772 181.829 188.802 181.841 188.83C181.853 188.858 181.879 188.898 181.919 188.95C182.059 189.094 182.237 189.166 182.453 189.166C182.633 189.166 182.781 189.1 182.897 188.968C183.013 188.832 183.071 188.662 183.071 188.458C183.071 188.238 183.015 188.06 182.903 187.924C182.791 187.784 182.635 187.714 182.435 187.714C182.183 187.714 181.981 187.812 181.829 188.008L181.415 187.9L181.553 185.908H183.551V186.454H182.117L182.063 187.3C182.135 187.26 182.219 187.228 182.315 187.204C182.415 187.18 182.507 187.168 182.591 187.168C182.923 187.168 183.193 187.276 183.401 187.492C183.609 187.704 183.713 188.01 183.713 188.41C183.713 188.682 183.659 188.916 183.551 189.112C183.443 189.304 183.293 189.454 183.101 189.562C182.913 189.666 182.699 189.718 182.459 189.718Z" fill="#8C91A9"/>
<path d="M179.459 198.725C179.199 198.725 178.963 198.675 178.751 198.575C178.543 198.475 178.383 198.327 178.271 198.131L178.745 197.741L178.793 197.705L178.823 197.747C178.823 197.779 178.829 197.809 178.841 197.837C178.853 197.865 178.879 197.905 178.919 197.957C179.059 198.101 179.237 198.173 179.453 198.173C179.633 198.173 179.781 198.107 179.897 197.975C180.013 197.839 180.071 197.669 180.071 197.465C180.071 197.245 180.015 197.067 179.903 196.931C179.791 196.791 179.635 196.721 179.435 196.721C179.183 196.721 178.981 196.819 178.829 197.015L178.415 196.907L178.553 194.915H180.551V195.461H179.117L179.063 196.307C179.135 196.267 179.219 196.235 179.315 196.211C179.415 196.187 179.507 196.175 179.591 196.175C179.923 196.175 180.193 196.283 180.401 196.499C180.609 196.711 180.713 197.017 180.713 197.417C180.713 197.689 180.659 197.923 180.551 198.119C180.443 198.311 180.293 198.461 180.101 198.569C179.913 198.673 179.699 198.725 179.459 198.725ZM182.507 198.719C182.239 198.719 182.011 198.645 181.823 198.497C181.639 198.349 181.497 198.143 181.397 197.879C181.301 197.611 181.253 197.297 181.253 196.937C181.253 196.497 181.313 196.123 181.433 195.815C181.553 195.503 181.719 195.265 181.931 195.101C182.143 194.937 182.385 194.855 182.657 194.855C182.821 194.855 182.987 194.885 183.155 194.945C183.323 195.001 183.473 195.093 183.605 195.221L183.233 195.635L183.197 195.683L183.149 195.647C183.149 195.611 183.137 195.583 183.113 195.563C183.093 195.543 183.057 195.515 183.005 195.479C182.917 195.439 182.821 195.419 182.717 195.419C182.641 195.419 182.559 195.433 182.471 195.461C182.387 195.485 182.305 195.537 182.225 195.617C182.145 195.693 182.077 195.805 182.021 195.953C181.965 196.097 181.931 196.287 181.919 196.523C181.999 196.419 182.101 196.339 182.225 196.283C182.353 196.223 182.481 196.193 182.609 196.193C182.809 196.193 182.989 196.239 183.149 196.331C183.309 196.423 183.435 196.559 183.527 196.739C183.623 196.919 183.671 197.145 183.671 197.417C183.671 197.665 183.621 197.887 183.521 198.083C183.421 198.279 183.283 198.435 183.107 198.551C182.931 198.663 182.731 198.719 182.507 198.719ZM182.519 198.173C182.671 198.173 182.795 198.105 182.891 197.969C182.991 197.829 183.041 197.645 183.041 197.417C183.041 197.181 182.985 197.007 182.873 196.895C182.765 196.783 182.645 196.727 182.513 196.727C182.389 196.727 182.279 196.765 182.183 196.841C182.091 196.917 182.009 197.015 181.937 197.135C181.921 197.439 181.967 197.689 182.075 197.885C182.183 198.081 182.331 198.177 182.519 198.173Z" fill="#8C91A9"/>
<path d="M179.459 207.733C179.199 207.733 178.963 207.683 178.751 207.583C178.543 207.483 178.383 207.335 178.271 207.139L178.745 206.749L178.793 206.713L178.823 206.755C178.823 206.787 178.829 206.817 178.841 206.845C178.853 206.873 178.879 206.913 178.919 206.965C179.059 207.109 179.237 207.181 179.453 207.181C179.633 207.181 179.781 207.115 179.897 206.983C180.013 206.847 180.071 206.677 180.071 206.473C180.071 206.253 180.015 206.075 179.903 205.939C179.791 205.799 179.635 205.729 179.435 205.729C179.183 205.729 178.981 205.827 178.829 206.023L178.415 205.915L178.553 203.923H180.551V204.469H179.117L179.063 205.315C179.135 205.275 179.219 205.243 179.315 205.219C179.415 205.195 179.507 205.183 179.591 205.183C179.923 205.183 180.193 205.291 180.401 205.507C180.609 205.719 180.713 206.025 180.713 206.425C180.713 206.697 180.659 206.931 180.551 207.127C180.443 207.319 180.293 207.469 180.101 207.577C179.913 207.681 179.699 207.733 179.459 207.733ZM181.691 207.661C181.867 207.113 182.049 206.581 182.237 206.065C182.429 205.549 182.631 205.029 182.843 204.505H181.337V203.923H183.605V204.295C183.377 204.843 183.161 205.393 182.957 205.945C182.753 206.497 182.565 207.069 182.393 207.661H181.691Z" fill="#8C91A9"/>
<path d="M179.459 216.739C179.199 216.739 178.963 216.689 178.751 216.589C178.543 216.489 178.383 216.341 178.271 216.145L178.745 215.755L178.793 215.719L178.823 215.761C178.823 215.793 178.829 215.823 178.841 215.851C178.853 215.879 178.879 215.919 178.919 215.971C179.059 216.115 179.237 216.187 179.453 216.187C179.633 216.187 179.781 216.121 179.897 215.989C180.013 215.853 180.071 215.683 180.071 215.479C180.071 215.259 180.015 215.081 179.903 214.945C179.791 214.805 179.635 214.735 179.435 214.735C179.183 214.735 178.981 214.833 178.829 215.029L178.415 214.921L178.553 212.929H180.551V213.475H179.117L179.063 214.321C179.135 214.281 179.219 214.249 179.315 214.225C179.415 214.201 179.507 214.189 179.591 214.189C179.923 214.189 180.193 214.297 180.401 214.513C180.609 214.725 180.713 215.031 180.713 215.431C180.713 215.703 180.659 215.937 180.551 216.133C180.443 216.325 180.293 216.475 180.101 216.583C179.913 216.687 179.699 216.739 179.459 216.739ZM182.447 216.733C182.195 216.733 181.975 216.689 181.787 216.601C181.603 216.509 181.459 216.387 181.355 216.235C181.255 216.079 181.205 215.903 181.205 215.707C181.205 215.467 181.269 215.263 181.397 215.095C181.529 214.923 181.699 214.783 181.907 214.675C181.751 214.579 181.625 214.457 181.529 214.309C181.433 214.157 181.385 213.997 181.385 213.829C181.385 213.649 181.429 213.487 181.517 213.343C181.605 213.195 181.731 213.079 181.895 212.995C182.059 212.911 182.255 212.869 182.483 212.869C182.831 212.869 183.099 212.959 183.287 213.139C183.475 213.319 183.569 213.537 183.569 213.793C183.569 213.993 183.523 214.169 183.431 214.321C183.339 214.473 183.215 214.597 183.059 214.693C183.259 214.797 183.415 214.937 183.527 215.113C183.639 215.285 183.695 215.477 183.695 215.689C183.695 215.889 183.643 216.069 183.539 216.229C183.435 216.385 183.289 216.509 183.101 216.601C182.913 216.689 182.695 216.733 182.447 216.733ZM182.573 214.489C182.689 214.405 182.777 214.307 182.837 214.195C182.897 214.079 182.927 213.961 182.927 213.841C182.927 213.725 182.885 213.627 182.801 213.547C182.721 213.463 182.609 213.421 182.465 213.421C182.321 213.421 182.211 213.461 182.135 213.541C182.059 213.621 182.021 213.717 182.021 213.829C182.021 213.977 182.073 214.103 182.177 214.207C182.285 214.311 182.417 214.405 182.573 214.489ZM182.459 216.175C182.647 216.175 182.789 216.125 182.885 216.025C182.981 215.925 183.029 215.799 183.029 215.647C183.029 215.487 182.965 215.345 182.837 215.221C182.713 215.097 182.547 215.001 182.339 214.933C182.199 215.009 182.087 215.105 182.003 215.221C181.919 215.337 181.877 215.473 181.877 215.629C181.877 215.785 181.929 215.915 182.033 216.019C182.137 216.123 182.279 216.175 182.459 216.175Z" fill="#8C91A9"/>
<path d="M179.459 225.747C179.199 225.747 178.963 225.697 178.751 225.597C178.543 225.497 178.383 225.349 178.271 225.153L178.745 224.763L178.793 224.727L178.823 224.769C178.823 224.801 178.829 224.831 178.841 224.859C178.853 224.887 178.879 224.927 178.919 224.979C179.059 225.123 179.237 225.195 179.453 225.195C179.633 225.195 179.781 225.129 179.897 224.997C180.013 224.861 180.071 224.691 180.071 224.487C180.071 224.267 180.015 224.089 179.903 223.953C179.791 223.813 179.635 223.743 179.435 223.743C179.183 223.743 178.981 223.841 178.829 224.037L178.415 223.929L178.553 221.937H180.551V222.483H179.117L179.063 223.329C179.135 223.289 179.219 223.257 179.315 223.233C179.415 223.209 179.507 223.197 179.591 223.197C179.923 223.197 180.193 223.305 180.401 223.521C180.609 223.733 180.713 224.039 180.713 224.439C180.713 224.711 180.659 224.945 180.551 225.141C180.443 225.333 180.293 225.483 180.101 225.591C179.913 225.695 179.699 225.747 179.459 225.747ZM182.291 225.741C182.103 225.741 181.921 225.717 181.745 225.669C181.569 225.617 181.409 225.529 181.265 225.405L181.613 224.907L181.643 224.859L181.691 224.889C181.699 224.921 181.711 224.951 181.727 224.979C181.743 225.003 181.777 225.037 181.829 225.081C181.957 225.153 182.103 225.189 182.267 225.189C182.463 225.189 182.623 225.097 182.747 224.913C182.871 224.725 182.953 224.477 182.993 224.169C182.813 224.285 182.605 224.343 182.369 224.343C182.153 224.343 181.959 224.295 181.787 224.199C181.615 224.103 181.477 223.965 181.373 223.785C181.273 223.605 181.223 223.395 181.223 223.155C181.223 222.915 181.277 222.699 181.385 222.507C181.497 222.315 181.645 222.163 181.829 222.051C182.013 221.939 182.219 221.883 182.447 221.883C182.839 221.883 183.135 222.033 183.335 222.333C183.539 222.629 183.641 223.057 183.641 223.617C183.641 224.309 183.523 224.835 183.287 225.195C183.055 225.555 182.723 225.737 182.291 225.741ZM181.859 223.173C181.859 223.381 181.913 223.539 182.021 223.647C182.133 223.755 182.267 223.809 182.423 223.809C182.543 223.809 182.651 223.793 182.747 223.761C182.847 223.725 182.935 223.663 183.011 223.575C183.003 223.155 182.949 222.859 182.849 222.687C182.753 222.511 182.611 222.423 182.423 222.423C182.255 222.423 182.119 222.491 182.015 222.627C181.911 222.759 181.859 222.941 181.859 223.173Z" fill="#8C91A9"/>
<rect x="190.494" y="95.7007" width="176.806" height="4.50358" fill="#A3848D" fill-opacity="0.3"/>
<rect x="190.494" y="104.708" width="128.897" height="4.50358" fill="#A3848D" fill-opacity="0.45"/>
<rect x="190.494" y="113.715" width="171.103" height="4.50358" fill="#A3848D" fill-opacity="0.45"/>
<rect x="190.494" y="122.722" width="116.35" height="4.50358" fill="#845A6D" fill-opacity="0.12"/>
<rect x="190.494" y="131.729" width="155.133" height="4.50358" fill="#C41661" fill-opacity="0.11"/>
<rect x="190.494" y="140.736" width="180.228" height="4.50358" fill="#817E9F" fill-opacity="0.45"/>
<rect x="190.494" y="149.744" width="182.51" height="4.50358" fill="#817E9F" fill-opacity="0.3"/>
<rect x="190.494" y="158.75" width="188.213" height="4.50358" fill="#7FC29B" fill-opacity="0.3"/>
<rect x="190.494" y="167.758" width="123.194" height="4.50358" fill="#B5EF8A" fill-opacity="0.45"/>
<rect x="190.494" y="176.765" width="171.103" height="4.50358" fill="#D7F171" fill-opacity="0.3"/>
<rect x="190.494" y="185.772" width="109.506" height="4.50358" fill="#845A6D" fill-opacity="0.3"/>
<rect x="190.494" y="194.779" width="96.9582" height="4.50358" fill="#3E1929" fill-opacity="0.2"/>
<rect x="190.494" y="203.787" width="192.776" height="4.50358" fill="#6E75A8" fill-opacity="0.3"/>
<rect x="190.494" y="212.793" width="171.103" height="4.50358" fill="#8D91C7" fill-opacity="0.3"/>
<rect x="190.494" y="221.801" width="188.213" height="4.50358" fill="#B0DAF1" fill-opacity="0.3"/>
<rect x="309" y="151" width="112" height="73" fill="black"/>
<rect x="309" y="143" width="112" height="8" fill="#C4C4C4"/>
<circle cx="317" cy="147" r="2" fill="#E84D4D"/>
<circle cx="323" cy="147" r="2" fill="#F2DD77"/>
<circle cx="329" cy="147" r="2" fill="#4EB785"/>
<path d="M316.472 156.969C316.43 156.869 316.559 156.784 316.637 156.861L318.984 159.167C319.023 159.206 319.023 159.269 318.984 159.308L316.637 161.614C316.559 161.691 316.43 161.606 316.472 161.506L317.413 159.275C317.423 159.251 317.423 159.224 317.413 159.2L316.472 156.969Z" fill="#2BCACA"/>
<path d="M324 160H320.5" stroke="#2BCACA"/>
<rect x="482.51" y="277.482" width="78.7072" height="3.37768" fill="#082032"/>
<path d="M501.901 277.482C501.901 272.508 505.934 268.475 510.908 268.475H532.818C537.792 268.475 541.825 272.508 541.825 277.482V277.482H501.901V277.482Z" fill="#C4C4C4"/>
<path d="M536.696 269.746C536.696 271.611 536.696 277.064 523.008 277.064C506.947 277.064 507.608 271.611 507.608 269.746C507.608 267.88 513.873 268.62 523.008 268.62C532.142 268.62 536.696 267.88 536.696 269.746Z" fill="#082032"/>
<rect x="521.293" y="268.475" width="1.14068" height="3.37768" rx="0.570342" fill="#C4C4C4"/>
<path d="M61.5969 31.4962C61.5969 30.5512 62.363 29.7852 63.308 29.7852V29.7852C64.2529 29.7852 65.019 30.5512 65.019 31.4962V278.023C65.019 278.968 64.253 279.734 63.308 279.734V279.734C62.3631 279.734 61.5971 278.968 61.5971 278.023L61.5969 31.4962Z" fill="#082032"/>
<rect x="63.8783" y="29.7852" width="7.98479" height="9.00716" fill="#C4C4C4"/>
<ellipse rx="8.47292" ry="8.5267" transform="matrix(0.512463 -0.858709 0.864503 0.502628 99.5031 38.8684)" fill="#FFF9CC"/>
<path d="M95.7737 37.3533C88.7395 49.1403 83.037 58.6956 83.037 58.6956C71.0952 51.7525 67.1168 36.5687 74.1511 24.7817C81.1854 12.9947 96.5686 9.06793 108.51 16.011C108.51 16.011 102.808 25.5663 95.7737 37.3533Z" fill="#2C394B"/>
<rect width="4.67393" height="58.2317" transform="matrix(-0.864503 -0.502628 0.512463 -0.858709 83.779 64.354)" fill="#C4C4C4"/>
<path d="M59.3157 275.845C59.3157 273.64 61.1031 271.853 63.3081 271.853V271.853C65.513 271.853 67.3005 273.64 67.3005 275.845V278.608H59.3157V275.845Z" fill="#C4C4C4"/>
<path d="M77.5665 280.86C77.5665 280.86 70.9274 280.86 62.7376 280.86C54.5478 280.86 47.9087 280.86 47.9087 280.86C47.9087 278.995 54.5478 277.482 62.7376 277.482C70.9274 277.482 77.5665 278.995 77.5665 280.86Z" fill="#082032"/>
</svg>
